{
  "title": "Ted.2.2015.HD-TS.XVID.AC3.HQ.Hive-CM8",
  "uid": 12085831,
  "size": 1467462187,
  "categoryP": "video",
  "categoryS": "movies",
  "magnet": "?xt=urn:btih:4ae25248369e619893b6593b2d1053a4ccb5b80e&amp;dn=Ted.2.2015.HD-TS.XVID.AC3.HQ.Hive-CM8&amp;tr=udp%3A%2F%2Ftracker.openbittorrent.com%3A80&amp;tr=udp%3A%2F%2Fopen.demonii.com%3A1337&amp;tr=udp%3A%2F%2Ftracker.coppersurfer.tk%3A6969&amp;tr=udp%3A%2F%2Fexodus.desync.com%3A6969",
  "seeders": 122,
  "leechers": 29,
  "uploader": "xxxlavalxxx",
  "files": 4,
  "time": 1435902932,
  "description": " &lt;a href=&quot;http://extraimago.com/image/70c&quot; rel=&quot;nofollow&quot; target=&quot;_NEW&quot;&gt;http://extraimago.com/image/70c&lt;/a&gt;\n &lt;a href=&quot;\nhttp://www.imdb.com/title/tt2637276/&quot; rel=&quot;nofollow&quot; target=&quot;_NEW&quot;&gt;\nhttp://www.imdb.com/title/tt2637276/&lt;/a&gt;\n\n\nNewlywed couple Ted and Tami-Lynn want to have a baby, but in order to qualify to be a parent, Ted will have to prove he's a person in a court of law.\n\nDirector: Seth MacFarlane\nWriters: Seth MacFarlane, Alec Sulkin\nStars: Mark Wahlberg, Seth MacFarlane, Amanda Seyfried\nGenres: Comedy\nCountry: USA\nLanguage: English\n\n\nTed.2.2015.HD-TS.XVID.AC3.HQ.Hive-CM8\n\nThx Hive\n\nCM8 Doing It Right The First Time\n\nSources:\n\nVideo: Semir 1080p Main, around MRG and LotterY thx guys\nAudio: Sweet Line Big Thx to S4NDM4N\n\nNotes:\n\nThis movie is complete from start to finish with aftercredits scene, all english and perfect line\n\nCould have done a nice ts-release on day 1, but the semir cam was missing last 18mins of the movie,bummer\nWas hoping someone would step up and go camming that last mins, but nobody wanted to go, this is such a big movie and they all denied\nreally dont understand the problem, waited 4 days nothing from russian,nothing from spanish, nothing from italy so only lottery did cam it\nlottery cam its pretty much same like the missing scenes on minions, a bit unsharp, but watchable\nthey all decided to release the movie without the last 18mins, bollox\nmrg did a nice job on muxing things together, but without fixing ar and perspective and with cam audio i cant watch that\nted needs some line to let you understand what he is talking, i wouldnt watch anything less than my version\n\nTheire wont be coming another cam\nNext is the korean web-dl which is due in 2-3 weeks, but it will feature subs and worst of all it will be censored\nand ted is all about swearing and that censored is unwatchable, i gladly pass on that, i wanna see it all\nso i had to step up and finish the job now\n\nEncode:\n\ntook me 2 days to get in done, awful lot of work\nthe main hdcam is semir which is quite nice, needed splitting in parts and fixing perspective when needed\nremoved some flicker and it needed brightening up and fixing the colours\nupfront 1min was missing, had to use lottery video for that\ncause it is a needed scene, also the narrative voice is talking the intro for the movie, cant be missed\nlast 18mins is from lottery cam too, fixed perspective and ar on that too, got quite nice consider the source(pics included)\n\nAudio was another perfect line through and through, very professional\n\nall in all its a good watch and will do me till retail\ngot very nice\nenjoy\n\nVideo: 720x304 @bitrate 1500 2pass\nAudio: English Line Stereo 2.0\nSample: yes included\nPS: terminator is next\n\nyou have access to 0 day HDCams? msg me\n &lt;a href=&quot;\nhttp://www.imdb.com/title/tt2637276/&quot; rel=&quot;nofollow&quot; target=&quot;_NEW&quot;&gt;\nhttp://www.imdb.com/title/tt2637276/&lt;/a&gt;\n\nGeneral\nComplete name: Ted.2.2015.HD-TS.XVID.AC3.HQ.Hive-CM8.avi\nFormat: AVI\nFormat/Info: Audio Video Interleave\nFile size: 1.35 GiB\nDuration: 1h 48mn\nOverall bit rate: 1 781 Kbps\nWriting application: Nandub v1.0rc2\nWriting library: Nandub build 1853/release\n\nVideo\nID: 0\nFormat: MPEG-4 Visual\nFormat profile: Advanced Simple@L5\nFormat settings, BVOP: 2\nFormat settings, QPel: Yes\nFormat settings, GMC: No warppoints\nFormat settings, Matrix: Default (H.263)\nMuxing mode: Packed bitstream\nCodec ID: XVID\nCodec ID/Hint: XviD\nDuration: 1h 48mn\nBit rate: 1 513 Kbps\nWidth: 720 pixels\nHeight: 304 pixels\nDisplay aspect ratio: 2.35:1\nFrame rate: 29.970 fps\nColor space: YUV\nChroma subsampling: 4:2:0\nBit depth: 8 bits\nScan type: Progressive\nCompression mode: Lossy\nBits/(Pixel*Frame): 0.231\nStream size: 1.15 GiB (85%)\nWriting library: XviD 1.2.1 (UTC 2008-12-04)\n\nAudio\nID: 1\nFormat: AC-3\nFormat/Info: Audio Coding 3\nMode extension: CM (complete main)\nFormat settings, Endianness: Big\nCodec ID: 2000\nDuration: 1h 48mn\nBit rate mode: Constant\nBit rate: 256 Kbps\nChannel(s): 2 channels\nChannel positions: Front: L R\nSampling rate: 48.0 KHz\nBit depth: 16 bits\nCompression mode: Lossy\nStream size: 199 MiB (14%)\nAlignment: Split accross interleaves\nInterleave, duration: 33 ms (1.00 video frame)\nInterleave, preload duration: 500 ms\n &lt;a href=&quot;\nhttp://extraimago.com/image/70a&quot; rel=&quot;nofollow&quot; target=&quot;_NEW&quot;&gt;\nhttp://extraimago.com/image/70a&lt;/a&gt; &lt;a href=&quot;\nhttp://extraimago.com/image/70w&quot; rel=&quot;nofollow&quot; target=&quot;_NEW&quot;&gt;\nhttp://extraimago.com/image/70w&lt;/a&gt; &lt;a href=&quot;\nhttp://extraimago.com/image/702&quot; rel=&quot;nofollow&quot; target=&quot;_NEW&quot;&gt;\nhttp://extraimago.com/image/702&lt;/a&gt; &lt;a href=&quot;\nhttp://extraimago.com/image/70N&quot; rel=&quot;nofollow&quot; target=&quot;_NEW&quot;&gt;\nhttp://extraimago.com/image/70N&lt;/a&gt; &lt;a href=&quot;\nhttp://extraimago.com/image/70T&quot; rel=&quot;nofollow&quot; target=&quot;_NEW&quot;&gt;\nhttp://extraimago.com/image/70T&lt;/a&gt; &lt;a href=&quot;\nhttp://extraimago.com/image/70j&quot; rel=&quot;nofollow&quot; target=&quot;_NEW&quot;&gt;\nhttp://extraimago.com/image/70j&lt;/a&gt; &lt;a href=&quot;\nhttp://extraimago.com/image/70n&quot; rel=&quot;nofollow&quot; target=&quot;_NEW&quot;&gt;\nhttp://extraimago.com/image/70n&lt;/a&gt; &lt;a href=&quot;\nhttp://extraimago.com/image/70s&quot; rel=&quot;nofollow&quot; target=&quot;_NEW&quot;&gt;\nhttp://extraimago.com/image/70s&lt;/a&gt; &lt;a href=&quot;\nhttp://extraimago.com/image/707&quot; rel=&quot;nofollow&quot; target=&quot;_NEW&quot;&gt;\nhttp://extraimago.com/image/707&lt;/a&gt;",
  "parsed": {
    "xt": "urn:btih:4ae25248369e619893b6593b2d1053a4ccb5b80e",
    "dn": "Ted.2.2015.HD-TS.XVID.AC3.HQ.Hive-CM8",
    "tr": [
      "udp://exodus.desync.com:6969",
      "udp://open.demonii.com:1337",
      "udp://tracker.coppersurfer.tk:6969",
      "udp://tracker.openbittorrent.com:80"
    ],
    "infoHash": "4ae25248369e619893b6593b2d1053a4ccb5b80e",
    "infoHashBuffer": {
      "type": "Buffer",
      "data": [
        74,
        226,
        82,
        72,
        54,
        158,
        97,
        152,
        147,
        182,
        89,
        59,
        45,
        16,
        83,
        164,
        204,
        181,
        184,
        14
      ]
    },
    "name": "Ted.2.2015.HD-TS.XVID.AC3.HQ.Hive-CM8",
    "announce": [
      "udp://exodus.desync.com:6969",
      "udp://open.demonii.com:1337",
      "udp://tracker.coppersurfer.tk:6969",
      "udp://tracker.openbittorrent.com:80"
    ],
    "urlList": []
  },
  "previous": 63,
  "peers": 50,
  "last_updated": "2016-12-26T23:29:55.753Z"
}